<?xml version="1.0" encoding="utf-8"?>
<!-- Generator: Adobe Illustrator 16.0.0, SVG Export Plug-In . SVG Version: 6.00 Build 0)  -->
<!DOCTYPE svg PUBLIC "-//W3C//DTD SVG 1.1//EN" "http://www.w3.org/Graphics/SVG/1.1/DTD/svg11.dtd">
<svg version="1.1" id="Layer_1" xmlns="http://www.w3.org/2000/svg" xmlns:xlink="http://www.w3.org/1999/xlink" x="0px" y="0px"
	 width="265px" height="58px" viewBox="0 0 265 58" enable-background="new 0 0 265 58" xml:space="preserve">
<g>
	<path fill="#FFFFFF" d="M230.317,38.06c-4.301,0-7.504-3.387-7.504-7.596l0,0l0,0c0-4.117,3.203-7.594,7.596-7.594l0,0
		c2.653,0,4.3,1.006,5.855,2.379l0,0l0.273,0.273l-1.28,1.281l-0.274-0.275c-1.189-1.188-2.563-2.013-4.666-2.013l0,0
		c-3.294,0-5.766,2.562-5.766,5.946l0,0l0,0c0,3.387,2.472,5.949,5.766,5.949l0,0c2.013,0,3.294-0.732,4.758-2.104l0,0l0.273-0.185
		l1.189,1.189l-0.274,0.275C234.709,37.052,232.97,38.06,230.317,38.06L230.317,38.06L230.317,38.06L230.317,38.06L230.317,38.06z
		 M171.755,38.06c-4.301,0-7.503-3.387-7.503-7.596l0,0l0,0c0-4.117,3.202-7.594,7.595-7.594l0,0c2.653,0,4.302,1.006,5.856,2.379
		l0,0l0.274,0.273l-1.281,1.281l-0.274-0.275c-1.188-1.188-2.563-2.013-4.667-2.013l0,0c-3.294,0-5.765,2.562-5.765,5.946l0,0l0,0
		c0,3.387,2.471,5.949,5.765,5.949l0,0c2.015,0,3.294-0.732,4.76-2.104l0,0l0.273-0.274l1.189,1.188l-0.274,0.274
		C176.147,37.052,174.409,38.06,171.755,38.06L171.755,38.06L171.755,38.06L171.755,38.06L171.755,38.06z M61.677,38.06
		c-1.829,0-3.386-0.55-4.482-1.646l0,0c-1.1-1.1-1.739-2.746-1.739-4.76l0,0v-8.601h1.739v8.509c0,3.203,1.646,4.852,4.575,4.852
		l0,0c2.745,0,4.392-1.557,4.482-4.76l0,0v-8.601h1.738v8.418c0,2.104-0.641,3.751-1.738,4.851l0,0
		C65.063,37.51,63.507,38.06,61.677,38.06L61.677,38.06L61.677,38.06L61.677,38.06L61.677,38.06z M155.742,38.06L155.742,38.06
		L155.742,38.06c-2.379,0-4.301-0.824-6.039-2.38l0,0l-0.274-0.274l1.189-1.281l0.274,0.275c1.556,1.372,2.928,2.014,4.939,2.014
		l0,0c2.015,0,3.295-1.1,3.295-2.472l0,0l0,0c0-1.28-0.549-2.013-3.844-2.653l0,0c-3.477-0.641-5.124-1.922-5.124-4.301l0,0l0,0
		c0-2.379,2.196-4.025,5.033-4.025l0,0c2.195,0,3.66,0.641,5.124,1.738l0,0l0.273,0.183l-1.099,1.372l-0.274-0.182
		c-1.279-1.099-2.562-1.465-4.116-1.465l0,0c-2.014,0-3.203,1.098-3.203,2.288l0,0l0,0c0,1.281,0.55,2.013,3.935,2.745l0,0
		c3.386,0.641,5.033,1.921,5.033,4.209l0,0l0,0C160.866,36.321,158.67,38.06,155.742,38.06L155.742,38.06L155.742,38.06z
		 M241.114,37.876h-0.274V23.144h10.98v0.366v1.28h-9.241v4.851h7.229v0.366v1.281h-7.229v4.94h9.333v0.365v1.28h-10.798V37.876z
		 M218.147,37.876h-1.007l-9.699-11.896v11.896h-0.366h-1.006h-0.366V23.144h0.366h1.188l9.426,11.621V23.144h1.737v14.732H218.147
		L218.147,37.876z M190.604,37.876h-0.365V23.144h10.979v0.366v1.28h-9.24v4.851h7.229v0.366v1.281h-7.229v4.94h9.333v0.365v1.28
		h-10.706V37.876z M184.108,37.876h-1.1h-0.365V23.144h1.738v14.732H184.108L184.108,37.876z M136.709,37.876h-1.006l-9.699-11.896
		v11.896h-0.366h-1.007h-0.365V23.144h0.365h1.189l9.425,11.621V23.144h1.738v14.732H136.709L136.709,37.876z M118.592,37.876
		l-1.829-3.936h-8.054l-1.83,3.936h-0.183h-1.098h-0.551l7.047-14.824h0.184h1.28l7.046,14.824H118.592L118.592,37.876z
		 M115.938,32.294l-3.295-6.955l-3.294,6.955H115.938L115.938,32.294z M90.409,37.876h-0.366V23.144h6.313
		c1.646,0,3.11,0.458,4.025,1.373l0,0c0.642,0.641,1.006,1.464,1.006,2.47l0,0l0,0c0,1.647-0.914,2.654-1.829,3.294l0,0
		c1.465,0.549,2.653,1.647,2.653,3.387l0,0l0,0c0,2.563-2.288,4.209-5.489,4.209l0,0H90.409L90.409,37.876z M83.82,37.876
		l-4.575-5.856h-4.209v5.856H74.67h-1.098h-0.366V23.144h6.405c1.83,0,3.386,0.549,4.301,1.464l0,0
		c0.731,0.731,1.189,1.739,1.189,2.836l0,0l0,0c0,2.38-1.738,3.845-3.936,4.302l0,0l4.851,6.131H83.82L83.82,37.876z M96.722,36.229
		c2.38,0,3.66-1.008,3.66-2.563l0,0l0,0c0-1.465-1.28-2.379-4.025-2.379l0,0h-4.575v4.94L96.722,36.229L96.722,36.229L96.722,36.229
		z M79.52,30.372c2.288,0,3.844-1.099,3.844-2.836l0,0l0,0c0-1.647-1.281-2.746-3.844-2.746l0,0h-4.575v5.674h4.575V30.372
		L79.52,30.372z M96.265,29.55c2.104,0,3.386-0.916,3.386-2.563l0,0l0,0c0-1.281-1.007-2.197-3.294-2.289l0,0h-4.483v4.852H96.265
		L96.265,29.55L96.265,29.55z"/>
</g>
<g>
	<path fill="#FFFFFF" d="M230.317,38.15L230.317,38.15c-2.104,0-4.026-0.823-5.398-2.196c-1.373-1.371-2.195-3.293-2.195-5.397l0,0
		c0-2.013,0.73-3.935,2.195-5.399c1.372-1.464,3.385-2.287,5.398-2.287l0,0c2.836,0,4.575,1.189,5.855,2.379l0.274,0.273
		l-1.281,1.281l-0.273-0.275c-1.1-1.006-2.38-1.921-4.575-2.013c-3.294,0-5.674,2.562-5.674,5.946l0,0
		c0,1.647,0.55,3.111,1.646,4.209c1.098,1.1,2.471,1.74,4.118,1.74c2.104,0,3.385-0.824,4.758-2.104l0.274-0.274l0,0l1.28,1.188
		l-0.273,0.274C234.435,37.327,232.604,38.15,230.317,38.15z M230.317,22.87L230.317,22.87c-2.104,0-4.026,0.823-5.398,2.287
		c-1.373,1.465-2.104,3.295-2.104,5.399l0,0c0,2.015,0.731,3.935,2.104,5.397c1.372,1.465,3.294,2.196,5.398,2.196l0,0
		c2.287,0,4.117-0.823,5.947-2.562l0.273-0.275l-1.188-1.098l-0.184,0.184c-1.281,1.28-2.653,2.104-4.758,2.104
		c-1.556,0-3.021-0.641-4.118-1.737c-1.097-1.097-1.646-2.653-1.646-4.301l0,0c0-3.386,2.471-5.947,5.766-5.947
		c2.287,0,3.568,1.006,4.666,2.013l0.184,0.184l1.189-1.189l-0.273-0.183C234.801,23.968,233.153,22.87,230.317,22.87z
		 M171.755,38.15L171.755,38.15c-2.104,0-4.024-0.823-5.397-2.196c-1.373-1.371-2.196-3.293-2.196-5.397l0,0
		c0-2.013,0.732-3.935,2.196-5.399c1.373-1.464,3.386-2.287,5.397-2.287l0,0c2.837,0,4.575,1.189,5.856,2.379l0.273,0.273
		l-1.28,1.281l-0.274-0.275c-1.007-1.006-2.379-1.921-4.575-2.013c-3.294,0-5.673,2.562-5.673,5.946l0,0
		c0,1.647,0.549,3.111,1.646,4.209c1.099,1.1,2.471,1.74,4.118,1.74c2.104,0,3.386-0.824,4.758-2.104l0.273-0.274l1.281,1.188l0,0
		l-0.274,0.274c-0.915,0.823-1.646,1.465-2.563,1.83C174.134,37.876,173.036,38.15,171.755,38.15z M171.847,22.87L171.847,22.87
		c-2.104,0-4.026,0.823-5.398,2.287c-1.373,1.465-2.104,3.295-2.104,5.399l0,0c0,2.015,0.731,3.935,2.104,5.397
		c1.372,1.465,3.294,2.196,5.398,2.196l0,0c2.928,0,4.666-1.372,5.946-2.562l0.275-0.275l-1.19-1.098l-0.183,0.184
		c-1.281,1.28-2.653,2.104-4.758,2.104c-1.557,0-3.021-0.641-4.118-1.737c-1.098-1.099-1.646-2.653-1.646-4.301l0,0
		c0-3.386,2.471-5.947,5.766-5.947c2.287,0,3.567,1.006,4.666,2.013l0.184,0.184l1.189-1.189l-0.274-0.183
		C176.33,24.059,174.684,22.87,171.847,22.87z M61.677,38.06c-1.829,0-3.386-0.55-4.482-1.646c-1.189-1.1-1.739-2.746-1.739-4.76
		v-8.601h1.83v8.509c0,3.111,1.556,4.852,4.484,4.852c2.928,0,4.392-1.647,4.482-4.76v-8.601h1.83v8.509
		c0,2.014-0.641,3.752-1.738,4.85C65.153,37.51,63.507,38.06,61.677,38.06L61.677,38.06z M55.454,23.144v8.509
		c0,2.015,0.641,3.66,1.739,4.759c1.098,1.099,2.653,1.647,4.482,1.647l0,0c1.83,0,3.387-0.55,4.483-1.647
		c1.099-1.099,1.738-2.836,1.738-4.851v-8.417h-1.738v8.509c0,3.111-1.556,4.759-4.483,4.851c-1.464,0-2.563-0.457-3.386-1.281
		c-0.823-0.822-1.188-2.014-1.188-3.66v-8.417L55.454,23.144L55.454,23.144z M155.742,38.06L155.742,38.06
		c-2.288,0-4.209-0.732-6.039-2.38l-0.274-0.274l1.189-1.373l0,0l0.274,0.275c1.646,1.464,2.928,2.014,4.939,2.014
		c1.922,0,3.295-1.008,3.295-2.472l0,0c0-1.28-0.549-1.921-3.752-2.653c-1.737-0.365-3.02-0.824-3.935-1.556
		c-0.823-0.731-1.281-1.647-1.281-2.836l0,0c0-2.288,2.196-4.026,5.033-4.026l0,0c2.013,0,3.567,0.549,5.124,1.83l0.273,0.274l0,0
		l-1.099,1.372l0,0l-0.274-0.182c-1.279-1.007-2.47-1.465-4.116-1.465c-0.915,0-1.738,0.273-2.288,0.732
		c-0.55,0.457-0.823,1.007-0.823,1.556l0,0c0,1.373,0.549,2.013,3.935,2.745c3.479,0.641,5.033,2.013,5.033,4.209l0,0
		c0,1.189-0.549,2.288-1.465,3.02C158.487,37.692,157.206,38.06,155.742,38.06z M149.52,35.497l0.273,0.183
		c1.83,1.556,3.752,2.288,6.04,2.288l0,0c1.372,0,2.745-0.366,3.659-1.189c0.916-0.732,1.465-1.83,1.465-3.02l0,0
		c0-2.197-1.556-3.569-5.033-4.209c-3.386-0.732-3.935-1.373-3.935-2.746l0,0c0-0.641,0.273-1.189,0.823-1.646
		c0.55-0.459,1.373-0.732,2.38-0.732c1.646,0,2.836,0.458,4.117,1.556l0.273,0.183l1.1-1.373l-0.274-0.183
		c-1.556-1.28-3.111-1.737-5.125-1.737l0,0c-2.836,0-4.94,1.737-4.94,4.025l0,0c0,2.288,1.557,3.568,5.124,4.301
		c3.294,0.732,3.844,1.373,3.844,2.653l0,0c0,0.642-0.274,1.281-0.915,1.739c-0.642,0.457-1.464,0.73-2.472,0.73
		c-2.013,0-3.294-0.549-4.94-2.013l-0.274-0.185L149.52,35.497z M251.912,37.876H240.84V23.052h10.98v1.738h-9.241v4.76h7.229v1.738
		h-7.229v4.94h9.333V37.876L251.912,37.876z M240.84,37.784h10.98v-1.646h-9.333v-5.033h7.229v-1.464h-7.229v-4.85h9.241v-1.647
		h-10.89L240.84,37.784L240.84,37.784z M218.513,37.876h-1.372l0,0l-9.607-11.805v11.805h-1.739V23.052h1.557l0,0l9.425,11.529
		V22.96h1.739v14.916H218.513z M217.141,37.784h1.28V23.053h-1.646v11.621v-0.091l-9.425-11.621h-1.464v14.73h1.646V25.798v0.092
		L217.141,37.784z M201.402,37.876H190.33V23.052h10.98v1.738h-9.241v4.76h7.229v1.738h-7.229v4.94h9.333V37.876L201.402,37.876z
		 M190.33,37.784h10.98v-1.646h-9.333v-5.033h7.229v-1.464h-7.229v-4.85h9.24v-1.647h-10.889L190.33,37.784L190.33,37.784z
		 M184.474,37.876h-1.83V23.052h1.83V37.876z M182.735,37.784h1.738V23.053h-1.738V37.784z M137.075,37.876h-1.372l0,0
		l-9.608-11.896v11.896h-1.737V23.052h1.556l0,0l9.425,11.529V22.96h1.738L137.075,37.876L137.075,37.876z M135.703,37.784h1.28
		V23.053h-1.646v11.621v-0.091l-9.425-11.621h-1.464v14.73h1.646V25.798L135.703,37.784z M120.604,37.876h-2.014l0,0l-1.83-3.936
		h-8.053l-1.83,3.936h-1.921l0,0l7.046-14.916h1.464l0,0L120.604,37.876z M118.592,37.784h1.923l-7.047-14.822h-1.465l-7.045,14.822
		h1.83l1.83-3.935h8.145l0,0L118.592,37.784z M96.631,37.876h-6.68V23.052h6.313c1.646,0,3.11,0.458,4.025,1.373
		c0.642,0.641,1.007,1.556,1.007,2.471l0,0c0,1.739-1.007,2.745-1.83,3.294c1.189,0.458,2.653,1.464,2.653,3.478l0,0
		c0,1.281-0.549,2.287-1.556,3.111C99.65,37.51,98.278,37.876,96.631,37.876z M90.043,37.784h6.588c1.557,0,2.93-0.365,3.936-1.098
		c1.007-0.732,1.556-1.83,1.556-3.02l0,0c0-2.015-1.464-2.928-2.652-3.387l0,0l0,0c0.822-0.55,1.829-1.464,1.829-3.203l0,0
		c0-0.914-0.365-1.83-1.007-2.471c-0.915-0.824-2.287-1.373-3.935-1.373h-6.313L90.043,37.784L90.043,37.784z M86.108,37.876H83.82
		l0,0l-4.575-5.856h-4.209v5.856h-1.83V23.052h6.405c1.83,0,3.294,0.549,4.301,1.464c0.731,0.731,1.189,1.83,1.189,2.836l0,0
		c0,2.196-1.464,3.751-3.936,4.3L86.108,37.876z M83.82,37.784h2.196l-4.851-6.131l0,0c2.472-0.549,3.936-2.104,3.936-4.209l0,0
		c0-1.098-0.458-2.104-1.189-2.836c-1.007-0.915-2.471-1.464-4.301-1.464h-6.405v14.731h1.738v-5.855h4.209l0,0L83.82,37.784z
		 M96.722,36.229h-4.94v-5.033h4.575c2.652,0,4.025,0.823,4.117,2.379l0,0C100.383,35.222,99.011,36.229,96.722,36.229z
		 M91.873,36.138h4.851c2.286,0,3.659-0.916,3.659-2.471l0,0c0-1.557-1.372-2.379-4.025-2.379h-4.483L91.873,36.138L91.873,36.138z
		 M116.029,32.294h-6.588l0,0l3.294-7.045l0,0L116.029,32.294z M109.441,32.202h6.497l-3.203-6.953L109.441,32.202z M79.52,30.372
		h-4.575v-5.674h4.575c2.471,0,3.844,1.008,3.844,2.745l0,0C83.454,29.274,81.99,30.372,79.52,30.372z M75.036,30.372h4.483
		c2.38,0,3.844-1.099,3.844-2.836l0,0c0-1.74-1.373-2.654-3.752-2.746h-4.575V30.372L75.036,30.372z M96.265,29.641h-4.483V24.79
		h4.575c1.098,0,1.922,0.274,2.471,0.642c0.549,0.366,0.823,0.915,0.823,1.647l0,0C99.65,28.635,98.369,29.55,96.265,29.641z
		 M91.873,29.55h4.393c2.104,0,3.294-0.916,3.386-2.563l0,0c0-1.373-1.189-2.197-3.202-2.197h-4.484v4.76H91.873z"/>
</g>
<g>
	<polygon fill="#73BF41" points="13.729,19.941 23.886,23.876 23.886,36.229 13.729,32.202 	"/>
</g>
<g>
	<polygon fill="#FFFFFF" points="4.763,41.444 4.763,20.765 19.493,26.53 19.493,40.438 18.763,40.438 18.763,26.986 5.493,21.862 
		5.493,40.987 13.82,44.189 13.546,44.829 	"/>
</g>
<g>
	<path fill="#FFFFFF" d="M13.638,44.921L13.638,44.921l-8.877-3.385V20.855l0,0l14.732,5.673v14h-0.824V27.077L5.493,21.952v19.033
		l8.327,3.202L13.638,44.921z M4.853,41.444l8.693,3.387l0.274-0.642l-8.327-3.202V21.862l0,0l13.268,5.124v13.36h0.642V26.53
		L4.761,20.856v20.588H4.853z"/>
</g>
<g>
	<polygon fill="#FFFFFF" points="21.14,47.759 21.324,47.118 31.39,50.96 31.39,44.099 20.957,40.071 20.957,40.071 21.232,39.34 
		32.121,43.55 32.121,52.06 	"/>
</g>
<g>
	<path fill="#FFFFFF" d="M32.212,52.15L32.212,52.15L21.05,47.85l0,0l0.273-0.731l0,0l9.975,3.844V44.1l-10.615-4.118h0.184
		l0.273-0.73l0,0l10.98,4.209v8.691L32.212,52.15L32.212,52.15z M21.14,47.759l10.98,4.209V43.55l-10.889-4.21l-0.275,0.641
		l10.432,4.026v7.045l-10.064-3.934L21.14,47.759z"/>
</g>
<g>
	<path fill="#FFFFFF" d="M13.363,41.993l28.458-9.516l-9.15-3.568V9.327L9.888,17.013V35.04l9.242,3.567l-0.275,0.642l-9.791-3.752
		V16.464l23.699-7.961l0.549,0.365V28.45l9.699,3.752v8.326l-29.738,9.975v-8.51H13.363L13.363,41.993z M14.095,42.452v6.953
		L42.37,39.89v-6.955L14.095,42.452L14.095,42.452z"/>
</g>
<g>
	<path fill="#FFFFFF" d="M13.363,50.503v-8.51l0,0l28.366-9.517l-9.059-3.569V9.417L9.978,17.013v17.936l9.334,3.659l-0.274,0.731
		l0,0l-9.791-3.844V16.462l0,0l23.7-7.961l0,0l0.549,0.367V28.45l9.699,3.75v8.328l0,0L13.363,50.503z M13.363,41.993v8.42
		l29.647-9.975v-8.236l-9.699-3.75V8.87l-0.459-0.274L9.245,16.557v18.94l9.7,3.752l0.274-0.641L9.978,35.04V17.014l0,0
		l22.783-7.687v19.582l9.15,3.569h-0.092L13.363,41.993z M14.095,49.497V42.45l0,0l28.275-9.517v6.955l0,0L14.095,49.497z
		 M14.095,42.542v6.863l28.184-9.517v-6.863L14.095,42.542z"/>
</g>
<g>
	<polygon fill="#FFFFFF" points="26.632,34.124 26.632,5.85 42.003,11.798 42.003,28.542 34.683,30.921 34.683,35.313 
		33.951,35.313 33.951,30.372 41.271,27.993 41.271,12.347 27.363,6.948 27.363,33.575 32.578,35.68 32.304,36.321 	"/>
</g>
<g>
	<path fill="#FFFFFF" d="M32.304,36.321L32.304,36.321l-5.672-2.197V5.851l0,0l15.373,5.948v16.745l0,0l-7.32,2.379v4.392h-0.823
		v-4.94l0,0l7.319-2.379V12.349L27.364,6.95v26.627l5.216,2.014L32.304,36.321z M26.722,34.124l5.582,2.195l0.274-0.641
		l-5.124-2.014V6.946l0,0l13.908,5.399v15.737l0,0l-7.32,2.379v4.851h0.641v-4.392l0,0l7.32-2.379V11.889L26.722,5.94V34.124
		L26.722,34.124z"/>
</g>
<g>
	<polygon fill="#FFFFFF" points="26.905,30.282 32.945,28.268 33.127,28.999 27.179,31.013 	"/>
</g>
<g>
	<path fill="#FFFFFF" d="M27.089,31.013l-0.274-0.73l0,0l6.038-2.014l0.274,0.732l0,0L27.089,31.013z M26.997,30.282l0.184,0.641
		l5.947-2.014l-0.183-0.641L26.997,30.282z"/>
</g>
<g>
	<polygon fill="#FFFFFF" points="5.036,27.169 5.31,26.53 9.702,28.177 9.429,28.816 	"/>
</g>
<g>
	<path fill="#FFFFFF" d="M9.521,28.909L9.521,28.909l-4.484-1.74l0.273-0.731l0,0l4.484,1.739L9.521,28.909z M5.127,27.169
		l4.392,1.647l0.275-0.64L5.402,26.53L5.127,27.169z"/>
</g>
<g>
	<path fill="#FFFFFF" d="M260.056,35.313c-0.093-0.365-0.274-0.641-0.55-0.914c-0.273-0.275-0.549-0.458-0.822-0.55
		c-0.366-0.091-0.732-0.183-1.1-0.183s-0.73,0.092-1.098,0.183c-0.366,0.092-0.642,0.366-0.824,0.55
		c-0.273,0.273-0.457,0.549-0.549,0.914c-0.091,0.366-0.183,0.732-0.183,1.1s0.092,0.73,0.183,1.098
		c0.092,0.365,0.274,0.641,0.549,0.915c0.275,0.274,0.55,0.457,0.824,0.549c0.366,0.092,0.73,0.185,1.098,0.185
		s0.732-0.093,1.1-0.185c0.364-0.092,0.64-0.365,0.822-0.549c0.274-0.274,0.457-0.55,0.55-0.915c0.092-0.366,0.184-0.73,0.184-1.098
		S260.147,35.68,260.056,35.313L260.056,35.313z M259.781,37.51c-0.092,0.274-0.274,0.55-0.458,0.823
		c-0.183,0.184-0.457,0.365-0.731,0.549c-0.273,0.092-0.641,0.184-1.007,0.184s-0.641-0.092-0.915-0.184
		c-0.273-0.092-0.549-0.273-0.73-0.549c-0.185-0.184-0.366-0.457-0.458-0.823c-0.092-0.274-0.184-0.642-0.184-1.007
		s0.092-0.731,0.184-1.006c0.092-0.275,0.273-0.549,0.458-0.824c0.183-0.184,0.457-0.365,0.73-0.549
		c0.274-0.092,0.642-0.184,0.915-0.184c0.366,0,0.642,0.092,0.915,0.184c0.274,0.092,0.549,0.274,0.732,0.549
		c0.183,0.184,0.366,0.457,0.457,0.824c0.092,0.273,0.184,0.641,0.184,1.006C259.873,36.87,259.873,37.144,259.781,37.51
		L259.781,37.51z M258.774,37.784l-0.915-1.281c0.184-0.09,0.366-0.183,0.458-0.272c0.092-0.185,0.183-0.366,0.183-0.55
		c0-0.273-0.091-0.458-0.273-0.641c-0.184-0.184-0.457-0.274-0.732-0.274h-0.823v3.11h0.458v-1.28h0.365l0.916,1.28L258.774,37.784
		L258.774,37.784z M257.951,36.138c-0.092,0.092-0.274,0.092-0.458,0.092h-0.365v-1.008h0.365c0.458,0,0.641,0.184,0.641,0.55
		C258.134,35.862,258.043,36.046,257.951,36.138L257.951,36.138z"/>
</g>
</svg>
